<svg width="34" height="23" viewBox="0 0 34 23" fill="none" xmlns="http://www.w3.org/2000/svg">
<g opacity="0.4" clip-path="url(#clip0_1_1661)">
<path d="M29.9392 10.1062L7.76437 10.1062L12.6361 4.80093C13.3081 4.06916 13.3081 2.97151 12.6361 2.23974C11.9642 1.50798 10.9562 1.50798 10.2842 2.23974L2.55665 10.6551C1.88468 11.3868 1.88468 12.4845 2.55665 13.2162L10.2842 21.6316C10.9562 22.3633 11.9642 22.3633 12.6361 21.6316C13.3081 20.8998 13.3081 19.8021 12.6361 19.0704L7.76437 13.7651L29.9392 13.7651C30.7792 13.7651 31.6191 13.0333 31.6191 11.9357C31.6191 10.838 30.7792 10.1062 29.9392 10.1062Z" fill="#458FF6"/>
</g>
<defs>
<clipPath id="clip0_1_1661">
<rect width="33.1144" height="22.9482" fill="white" transform="translate(0.762695 0.0517578)"/>
</clipPath>
</defs>
</svg>
