<svg width="38" height="30" viewBox="0 0 38 30" fill="none" xmlns="http://www.w3.org/2000/svg">
<g clip-path="url(#clip0_1_1663)" filter="url(#filter0_d_1_1663)">
<path d="M6.06098 12.9455L28.2358 12.9455L23.3641 18.2508C22.6921 18.9826 22.6921 20.0802 23.3641 20.812C24.036 21.5438 25.044 21.5438 25.7159 20.812L33.4435 12.3967C34.1155 11.6649 34.1155 10.5673 33.4435 9.83551L25.7159 1.42019C25.044 0.688424 24.036 0.688424 23.3641 1.42019C22.6921 2.15196 22.6921 3.24961 23.3641 3.98137L28.2358 9.28669L6.06098 9.28668C5.22102 9.28668 4.38107 10.0184 4.38107 11.1161C4.38107 12.2138 5.22102 12.9455 6.06098 12.9455Z" fill="#458FF6"/>
</g>
<defs>
<filter id="filter0_d_1_1663" x="-1.87692" y="0.0517578" width="41.1144" height="30.9482" filterUnits="userSpaceOnUse" color-interpolation-filters="sRGB">
<feFlood flood-opacity="0" result="BackgroundImageFix"/>
<feColorMatrix in="SourceAlpha" type="matrix" values="0 0 0 0 0 0 0 0 0 0 0 0 0 0 0 0 0 0 127 0" result="hardAlpha"/>
<feOffset dy="4"/>
<feGaussianBlur stdDeviation="2"/>
<feComposite in2="hardAlpha" operator="out"/>
<feColorMatrix type="matrix" values="0 0 0 0 0 0 0 0 0 0 0 0 0 0 0 0 0 0 0.25 0"/>
<feBlend mode="normal" in2="BackgroundImageFix" result="effect1_dropShadow_1_1663"/>
<feBlend mode="normal" in="SourceGraphic" in2="effect1_dropShadow_1_1663" result="shape"/>
</filter>
<clipPath id="clip0_1_1663">
<rect width="33.1144" height="22.9482" fill="white" transform="translate(35.2375 23) rotate(-180)"/>
</clipPath>
</defs>
</svg>
